<svg width="64" height="64" viewBox="0 0 64 64" fill="none" xmlns="http://www.w3.org/2000/svg">
<rect x="28.4443" y="25" width="7.11111" height="7" fill="#FF2626"/>
<rect x="28.4443" y="11" width="7.11111" height="7" fill="#FF2626"/>
<rect x="56.8887" y="25" width="7.11111" height="7" fill="#FF2626"/>
<rect x="35.5557" y="11" width="7.11111" height="7" fill="#FF2626"/>
<rect x="42.6665" y="11" width="7.11111" height="7" fill="#FF2626"/>
<rect y="25" width="7.11111" height="7" fill="#FF2626"/>
<rect x="56.8887" y="32" width="7.11111" height="7" fill="#FF2626"/>
<rect x="35.5557" y="32" width="7.11111" height="7" fill="#FF2626"/>
<rect x="35.5557" y="25" width="7.11111" height="7" fill="#FF2626"/>
<rect x="35.5557" y="25" width="7.11111" height="7" fill="#FF2626"/>
<rect x="42.6665" y="25" width="7.11111" height="7" fill="#FF2626"/>
<rect x="42.6665" y="32" width="7.11111" height="7" fill="#FF2626"/>
<rect x="14.2222" y="32" width="7.11111" height="7" fill="#FF2626"/>
<rect x="14.2222" y="25" width="7.11111" height="7" fill="#FF2626"/>
<rect x="28.4443" y="32" width="7.11111" height="7" fill="#FF2626"/>
<rect x="28.4443" y="39" width="7.11111" height="7" fill="#FF2626"/>
<rect x="21.3335" y="32" width="7.11111" height="7" fill="#FF2626"/>
<rect x="7.11133" y="39" width="7.11111" height="7" fill="#FF2626"/>
<rect x="7.11133" y="18" width="7.11111" height="7" fill="#FF2626"/>
<rect x="14.2222" y="46" width="7.11111" height="7" fill="#FF2626"/>
<rect x="28.4443" y="46" width="7.11111" height="7" fill="#FF2626"/>
<rect x="35.5557" y="46" width="7.11111" height="7" fill="#FF2626"/>
<rect x="49.7778" y="18" width="7.11111" height="7" fill="#FF2626"/>
<rect x="42.6665" y="46" width="7.11111" height="7" fill="#FF2626"/>
<rect x="49.7778" y="39" width="7.11111" height="7" fill="#FF2626"/>
<rect y="32" width="7.11111" height="7" fill="#FF2626"/>
<rect x="21.3335" y="46" width="7.11111" height="7" fill="#FF2626"/>
<rect x="28.4443" y="18" width="7.11111" height="7" fill="#FF2626"/>
<rect x="21.3335" y="18" width="7.11111" height="7" fill="#FF2626"/>
<rect x="35.5557" y="18" width="7.11111" height="7" fill="#FF2626"/>
<rect x="35.5557" y="39" width="7.11111" height="7" fill="#FF2626"/>
<rect x="21.3335" y="39" width="7.11111" height="7" fill="#FF2626"/>
<rect x="21.3335" y="11" width="7.11111" height="7" fill="#FF2626"/>
<rect x="21.3335" y="25" width="7.11111" height="7" fill="#FF2626"/>
<rect x="14.2222" y="11" width="7.11111" height="7" fill="#FF2626"/>
</svg>
